<svg width="17" height="17" viewBox="0 0 17 17" fill="none" xmlns="http://www.w3.org/2000/svg">
<g clip-path="url(#clip0_204_29)">
<path d="M12.4759 10.9905C13.5047 9.58659 13.9655 7.84601 13.7661 6.11696C13.5666 4.38791 12.7217 2.79791 11.4004 1.66506C10.079 0.532213 8.37858 -0.0599365 6.63937 0.00707871C4.90015 0.0740939 3.25036 0.795332 2.02007 2.0265C0.789788 3.25767 0.0697311 4.90797 0.00396038 6.64723C-0.0618103 8.3865 0.531556 10.0865 1.66535 11.407C2.79914 12.7276 4.38974 13.5714 6.11894 13.7695C7.84813 13.9677 9.58838 13.5057 10.9915 12.4759H10.9905C11.0224 12.5184 11.0564 12.5587 11.0946 12.598L15.1852 16.6887C15.3845 16.888 15.6547 17.0001 15.9366 17.0002C16.2184 17.0003 16.4888 16.8884 16.6881 16.6892C16.8875 16.49 16.9996 16.2197 16.9997 15.9379C16.9998 15.656 16.8879 15.3857 16.6887 15.1863L12.598 11.0957C12.5601 11.0572 12.5192 11.0228 12.4759 10.9905ZM12.75 6.90624C12.75 7.67365 12.5988 8.43355 12.3051 9.14254C12.0115 9.85154 11.581 10.4957 11.0384 11.0384C10.4957 11.581 9.85153 12.0115 9.14253 12.3052C8.43354 12.5988 7.67364 12.75 6.90623 12.75C6.13882 12.75 5.37892 12.5988 4.66992 12.3052C3.96092 12.0115 3.31671 11.581 2.77407 11.0384C2.23143 10.4957 1.80098 9.85154 1.50731 9.14254C1.21363 8.43355 1.06248 7.67365 1.06248 6.90624C1.06248 5.35638 1.67816 3.87 2.77407 2.77408C3.86999 1.67816 5.35637 1.06248 6.90623 1.06248C8.45609 1.06248 9.94247 1.67816 11.0384 2.77408C12.1343 3.87 12.75 5.35638 12.75 6.90624Z" fill="#01161E"/>
</g>
<defs>
<clipPath id="clip0_204_29">
<rect width="17" height="17" fill="white"/>
</clipPath>
</defs>
</svg>
